
<svg width="15" height="15" viewBox="0 0 15 15" fill="none" xmlns="http://www.w3.org/2000/svg">
<g opacity="0.4" clip-path="url(#clip0_140_4424)">
<path d="M14.7481 6.70534L8.01807 0.572993C7.72267 0.303784 7.27721 0.303814 6.98193 0.572963L0.251895 6.70537C0.0152649 6.921 -0.062899 7.25322 0.0527063 7.55173C0.168341 7.85023 0.449883 8.0431 0.77001 8.0431H1.84491V14.1873C1.84491 14.4309 2.04243 14.6284 2.28603 14.6284H5.97491C6.21851 14.6284 6.41603 14.4309 6.41603 14.1873V10.4567H8.58406V14.1873C8.58406 14.4309 8.78158 14.6284 9.02518 14.6284H12.7139C12.9575 14.6284 13.155 14.4309 13.155 14.1873V8.0431H14.2301C14.5502 8.0431 14.8318 7.8502 14.9474 7.55173C15.0629 7.25319 14.9847 6.921 14.7481 6.70534Z" fill="#4C49F2"/>
<path d="M13.0399 1.25195H10.0774L13.481 4.34675V1.69305C13.481 1.44944 13.2835 1.25195 13.0399 1.25195Z" fill="#B5B4F9"/>
</g>
<defs>
<clipPath id="clip0_140_4424">
<rect width="15" height="15" fill="white"/>
</clipPath>
</defs>
</svg>
