
<svg width="13" height="15" viewBox="0 0 13 15" fill="none" xmlns="http://www.w3.org/2000/svg">
<g opacity="0.4" clip-path="url(#clip0_140_4394)">
<path d="M11.9747 1.26557C11.7259 1.01625 11.395 0.878906 11.043 0.878906H10.4586V1.46484C10.4586 2.11102 9.93353 2.63672 9.28806 2.63672H4.02048C3.37501 2.63672 2.84989 2.11102 2.84989 1.46484V0.878906H2.26363C1.5383 0.878906 0.947559 1.46965 0.946739 2.1958L0.934083 13.6802C0.933673 14.0326 1.07049 14.364 1.31925 14.6133C1.56807 14.8627 1.89895 15 2.25098 15H11.0303C11.7556 15 12.3464 14.4093 12.3472 13.6831L12.3599 2.19873C12.3603 1.84632 12.2235 1.51491 11.9747 1.26557ZM6.79621 5.27344H9.91495C10.1574 5.27344 10.3539 5.4702 10.3539 5.71289C10.3539 5.95559 10.1574 6.15234 9.91495 6.15234H6.79621C6.55378 6.15234 6.35726 5.95559 6.35726 5.71289C6.35726 5.4702 6.55378 5.27344 6.79621 5.27344ZM6.79621 8.20312H9.91495C10.1574 8.20312 10.3539 8.39988 10.3539 8.64258C10.3539 8.88527 10.1574 9.08203 9.91495 9.08203H6.79621C6.55378 9.08203 6.35726 8.88527 6.35726 8.64258C6.35726 8.39988 6.55378 8.20312 6.79621 8.20312ZM6.79621 11.1328H9.92749C10.1699 11.1328 10.3664 11.3296 10.3664 11.5723C10.3664 11.815 10.1699 12.0117 9.92749 12.0117H6.79621C6.55378 12.0117 6.35726 11.815 6.35726 11.5723C6.35726 11.3296 6.55378 11.1328 6.79621 11.1328ZM3.05608 5.29078C3.22753 5.11916 3.50544 5.11916 3.67689 5.29078L3.91557 5.52976L4.92789 4.51632C5.09934 4.34473 5.37725 4.34467 5.54866 4.51632C5.72008 4.68791 5.72008 4.96617 5.54866 5.13779L4.22594 6.46195C4.14361 6.54436 4.03196 6.59068 3.91554 6.59068C3.79911 6.59068 3.68746 6.54439 3.60514 6.46195L3.05606 5.91223C2.88464 5.74063 2.88464 5.46237 3.05608 5.29078ZM3.05608 8.44421C3.22753 8.27259 3.50544 8.27259 3.67689 8.44421L3.91557 8.68315L4.92789 7.66972C5.09931 7.49813 5.37725 7.49813 5.54866 7.66972C5.72008 7.84131 5.72008 8.11957 5.54866 8.29119L4.22594 9.61538C4.14364 9.69779 4.03196 9.74411 3.91554 9.74411C3.79911 9.74411 3.68746 9.69782 3.60514 9.61538L3.05606 9.06565C2.88464 8.89406 2.88464 8.61583 3.05608 8.44421ZM3.05608 11.3739C3.22753 11.2023 3.50544 11.2023 3.67689 11.3739L3.91557 11.6128L4.92789 10.5994C5.09931 10.4278 5.37725 10.4278 5.54866 10.5994C5.72008 10.771 5.72008 11.0493 5.54866 11.2209L4.22594 12.5451C4.14364 12.6275 4.03196 12.6738 3.91554 12.6738C3.79911 12.6738 3.68746 12.6275 3.60514 12.5451L3.05606 11.9953C2.88464 11.8238 2.88464 11.5455 3.05608 11.3739Z" fill="#4A47EF"/>
<path d="M3.72778 1.46484C3.72778 1.62665 3.8588 1.75781 4.02043 1.75781H9.28801C9.44964 1.75781 9.58065 1.62665 9.58065 1.46484V0.292969C9.58065 0.131162 9.44964 0 9.28801 0H4.02043C3.8588 0 3.72778 0.131162 3.72778 0.292969V1.46484Z" fill="#B5B4F9"/>
</g>
<defs>
<clipPath id="clip0_140_4394">
<rect width="12" height="15" fill="white" transform="translate(0.646973)"/>
</clipPath>
</defs>
</svg>
