
<svg width="18" height="15" viewBox="0 0 18 15" fill="none" xmlns="http://www.w3.org/2000/svg">
<g opacity="0.4" clip-path="url(#clip0_140_4383)">
<path d="M8.90974 8.89941H13.4456C15.7652 8.89941 17.6471 10.7813 17.6471 13.1009C17.6471 14.035 16.8888 14.7933 15.9548 14.7933H6.404C5.46994 14.7933 4.71167 14.035 4.71167 13.1009C4.71167 10.7779 6.59012 8.89941 8.90974 8.89941Z" fill="#B5B4F9"/>
<path d="M11.1777 7.70014C13.2469 7.70014 14.9243 6.02275 14.9243 3.95359C14.9243 1.88442 13.2469 0.207031 11.1777 0.207031C9.10854 0.207031 7.43115 1.88442 7.43115 3.95359C7.43115 6.02275 9.10854 7.70014 11.1777 7.70014Z" fill="#B5B4F9"/>
<path d="M4.20152 8.89941H8.73736C11.057 8.89941 12.9389 10.7813 12.9389 13.1009C12.9389 14.035 12.1806 14.7933 11.2466 14.7933H1.69233C0.758272 14.7898 0 14.035 0 13.0975C0 10.7779 1.88189 8.89941 4.20152 8.89941Z" fill="#4240E9"/>
<path d="M6.46945 7.70014C8.53862 7.70014 10.216 6.02275 10.216 3.95359C10.216 1.88442 8.53862 0.207031 6.46945 0.207031C4.40029 0.207031 2.7229 1.88442 2.7229 3.95359C2.7229 6.02275 4.40029 7.70014 6.46945 7.70014Z" fill="#4240E9"/>
</g>
<defs>
<clipPath id="clip0_140_4383">
<rect width="17.6471" height="15" fill="white"/>
</clipPath>
</defs>
</svg>
