
<svg width="17" height="15" viewBox="0 0 17 15" fill="none" xmlns="http://www.w3.org/2000/svg">
<g opacity="0.4" clip-path="url(#clip0_140_4451)">
<path d="M2.75084 12.2371H6.22453L5.90874 13.5003H4.51926C4.14032 13.5003 3.88768 13.7529 3.88768 14.1319C3.88768 14.4477 4.14032 14.7635 4.51926 14.7635H12.6035C12.9824 14.7635 13.2351 14.4477 13.2351 14.1319C13.2351 13.7529 12.9824 13.5003 12.6035 13.5003H11.2772L10.9614 12.2371H14.4351C15.3824 12.2371 16.2035 11.4161 16.2035 10.4687C16.2035 7.43714 16.2035 5.16345 16.2035 2.06871C16.2035 1.12135 15.3824 0.300294 14.4351 0.300294H2.75084C1.80347 0.237136 0.982422 1.05819 0.982422 2.00556V10.4056C0.982422 11.4161 1.74032 12.2371 2.75084 12.2371ZM2.24558 2.00556C2.24558 1.75293 2.49821 1.50029 2.75084 1.50029H14.3719C14.6245 1.50029 14.8772 1.75293 14.8772 2.00556V8.44766H2.24558V2.00556Z" fill="#4240E9"/>
<path d="M12.3509 6.17388C12.0351 6.17388 11.8456 5.98441 11.7193 5.79493C11.593 5.5423 11.6562 5.28967 11.8456 5.10019L11.9088 5.03704C12.1614 4.78441 12.1614 4.40546 11.9088 4.15283L11.4667 3.71072C11.2141 3.45809 10.8351 3.45809 10.5825 3.71072L10.5193 3.77388C10.393 4.02651 10.1404 4.02651 9.88775 3.96335C9.88775 3.96335 9.88775 3.96335 9.82459 3.96335C9.57196 3.9002 9.44564 3.64756 9.44564 3.39493V3.33177C9.44564 3.01598 9.19301 2.7002 8.81406 2.7002H8.24564C7.92985 2.7002 7.61406 2.95283 7.61406 3.33177V3.39493C7.61406 3.64756 7.48775 3.9002 7.23512 3.96335C7.23512 3.96335 7.23512 3.96335 7.17196 3.96335C6.98249 4.02651 6.72985 4.02651 6.54038 3.83704V3.77388C6.28775 3.52125 5.9088 3.52125 5.65617 3.77388L5.21406 4.21598C4.96143 4.46862 4.96143 4.84756 5.21406 5.10019L5.27722 5.16335C5.4667 5.28967 5.52985 5.5423 5.40354 5.79493C5.27722 6.04756 5.08775 6.17388 4.83512 6.17388H4.77196C4.45617 6.17388 4.14038 6.42651 4.14038 6.80546V7.18441H6.6667V7.12125C6.6667 6.04756 7.48775 5.22651 8.56143 5.22651C9.63512 5.22651 10.4562 6.04756 10.4562 7.12125V7.18441H12.9825V6.80546C12.9825 6.48967 12.6667 6.17388 12.3509 6.17388Z" fill="#B5B4F9"/>
</g>
<defs>
<clipPath id="clip0_140_4451">
<rect width="15.7895" height="15" fill="white" transform="translate(0.666748)"/>
</clipPath>
</defs>
</svg>
