
<svg width="18" height="16" viewBox="0 0 18 16" fill="none" xmlns="http://www.w3.org/2000/svg">
<g id="users" clip-path="url(#clip0_140_2518)">
<g id="Layer_2_00000141413622185910929590000000074088626417050301_">
<g id="users_2">
<path id="Vector" d="M8.90969 9.39941H13.4455C15.7652 9.39941 17.6471 11.2813 17.6471 13.6009C17.6471 14.535 16.8888 15.2933 15.9547 15.2933H6.40395C5.4699 15.2933 4.71162 14.535 4.71162 13.6009C4.71162 11.2779 6.59007 9.39941 8.90969 9.39941Z" fill="#afafaf"/>
<path id="Vector_2" d="M11.1776 8.20014C13.2468 8.20014 14.9242 6.52275 14.9242 4.45359C14.9242 2.38442 13.2468 0.707031 11.1776 0.707031C9.10846 0.707031 7.43107 2.38442 7.43107 4.45359C7.43107 6.52275 9.10846 8.20014 11.1776 8.20014Z" fill="#afafaf"/>
<g id="Group">
<path id="Vector_3" d="M4.20152 9.39941H8.73736C11.057 9.39941 12.9389 11.2813 12.9389 13.6009C12.9389 14.535 12.1806 15.2933 11.2466 15.2933H1.69233C0.758272 15.2898 0 14.535 0 13.5975C0 11.2779 1.88189 9.39941 4.20152 9.39941Z" fill="#7d7d7d"/>
<path id="Vector_4" d="M6.46944 8.20014C8.5386 8.20014 10.216 6.52275 10.216 4.45359C10.216 2.38442 8.5386 0.707031 6.46944 0.707031C4.40027 0.707031 2.72289 2.38442 2.72289 4.45359C2.72289 6.52275 4.40027 8.20014 6.46944 8.20014Z" fill="#7d7d7d"/>
</g>
</g>
</g>
</g>
<defs>
<clipPath id="clip0_140_2518">
<rect width="17.6471" height="15" fill="white" transform="translate(0 0.5)"/>
</clipPath>
</defs>
</svg>
