
<svg width="16" height="13" viewBox="0 0 16 13" fill="none" xmlns="http://www.w3.org/2000/svg">
<path fill-rule="evenodd" clip-rule="evenodd" d="M5.83478 1.61295C5.72366 1.61295 5.63358 1.70314 5.63358 1.8144C5.63358 2.59317 5.00302 3.22449 4.22519 3.22449H2.21319C1.65759 3.22449 1.2072 3.67543 1.2072 4.23171V10.6779C1.2072 11.2342 1.65759 11.6851 2.21319 11.6851H13.4804C14.036 11.6851 14.4864 11.2342 14.4864 10.6779V4.23171C14.4864 3.67543 14.036 3.22449 13.4804 3.22449H11.4684C10.6905 3.22449 10.06 2.59317 10.06 1.8144C10.06 1.70314 9.96991 1.61295 9.85877 1.61295H5.83478ZM4.42639 1.8144C4.42639 1.03562 5.05694 0.404297 5.83478 0.404297H9.85877C10.6366 0.404297 11.2672 1.03562 11.2672 1.8144C11.2672 1.92565 11.3572 2.01584 11.4684 2.01584H13.4804C14.7027 2.01584 15.6936 3.00792 15.6936 4.23171V10.6779C15.6936 11.9017 14.7027 12.8937 13.4804 12.8937H2.21319C0.990883 12.8937 0 11.9017 0 10.6779V4.23171C0 3.00792 0.990883 2.01584 2.21319 2.01584H4.22519C4.33631 2.01584 4.42639 1.92565 4.42639 1.8144ZM7.84678 5.6418C6.84673 5.6418 6.03598 6.45354 6.03598 7.45479C6.03598 8.45604 6.84673 9.26777 7.84678 9.26777C8.84682 9.26777 9.65757 8.45604 9.65757 7.45479C9.65757 6.45354 8.84682 5.6418 7.84678 5.6418ZM4.82878 7.45479C4.82878 5.78596 6.17998 4.43315 7.84678 4.43315C9.51359 4.43315 10.8648 5.78596 10.8648 7.45479C10.8648 9.12362 9.51359 10.4764 7.84678 10.4764C6.17998 10.4764 4.82878 9.12362 4.82878 7.45479Z" fill="white"/>
</svg>
