
<svg width="16" height="16" viewBox="0 0 16 16" fill="none" className='menuicon' xmlns="http://www.w3.org/2000/svg">
<g opacity="0.8" clip-path="url(#clip0_140_2570)">
<path d="M2.08422 12.7366H5.5579L5.24211 13.9998H3.85264C3.47369 13.9998 3.22106 14.2524 3.22106 14.6314C3.22106 14.9472 3.47369 15.263 3.85264 15.263H11.9368C12.3158 15.263 12.5684 14.9472 12.5684 14.6314C12.5684 14.2524 12.3158 13.9998 11.9368 13.9998H10.6105L10.2947 12.7366H13.7684C14.7158 12.7366 15.5368 11.9156 15.5368 10.9682C15.5368 7.93665 15.5368 5.66296 15.5368 2.56823C15.5368 1.62086 14.7158 0.799806 13.7684 0.799806H2.08422C1.13685 0.736648 0.315796 1.5577 0.315796 2.50507V10.9051C0.315796 11.9156 1.07369 12.7366 2.08422 12.7366ZM1.57895 2.50507C1.57895 2.25244 1.83159 1.99981 2.08422 1.99981H13.7053C13.9579 1.99981 14.2105 2.25244 14.2105 2.50507V8.94717H1.57895V2.50507Z" fill="#828282"/>
<path d="M11.6842 6.67339C11.3684 6.67339 11.179 6.48392 11.0526 6.29444C10.9263 6.04181 10.9895 5.78918 11.179 5.59971L11.2421 5.53655C11.4947 5.28392 11.4947 4.90497 11.2421 4.65234L10.8 4.21023C10.5474 3.9576 10.1684 3.9576 9.9158 4.21023L9.85264 4.27339C9.72633 4.52602 9.47369 4.52602 9.22106 4.46286C9.22106 4.46286 9.22106 4.46286 9.1579 4.46286C8.90527 4.39971 8.77896 4.14708 8.77896 3.89444V3.83129C8.77896 3.5155 8.52633 3.19971 8.14738 3.19971H7.57896C7.26317 3.19971 6.94738 3.45234 6.94738 3.83129V3.89444C6.94738 4.14708 6.82106 4.39971 6.56843 4.46286C6.56843 4.46286 6.56843 4.46286 6.50527 4.46286C6.3158 4.52602 6.06317 4.52602 5.87369 4.33655V4.27339C5.62106 4.02076 5.24211 4.02076 4.98948 4.27339L4.54738 4.7155C4.29475 4.96813 4.29475 5.34707 4.54738 5.59971L4.61054 5.66286C4.80001 5.78918 4.86317 6.04181 4.73685 6.29444C4.61054 6.54708 4.42106 6.67339 4.16843 6.67339H4.10527C3.78948 6.67339 3.47369 6.92602 3.47369 7.30497V7.68392H6.00001V7.62076C6.00001 6.54707 6.82106 5.72602 7.89475 5.72602C8.96843 5.72602 9.78948 6.54707 9.78948 7.62076V7.68392H12.3158V7.30497C12.3158 6.98918 12 6.67339 11.6842 6.67339Z" fill="#333333"/>
</g>
<defs>
<clipPath id="clip0_140_2570">
<rect width="15.7895" height="15" fill="white" transform="translate(0 0.5)"/>
</clipPath>
</defs>
</svg>
