
<svg width="23" height="21" viewBox="0 0 23 21" fill="none" xmlns="http://www.w3.org/2000/svg">
<g id="crown 1">
<path id="Vector" fill-rule="evenodd" clip-rule="evenodd" d="M3.65922 3.76872C3.91284 3.66715 4.20477 3.72329 4.39889 3.91098L7.53882 6.94694L10.6788 3.91098C10.9438 3.6547 11.3735 3.6547 11.6386 3.91098L14.7785 6.94694L17.9185 3.91098C18.1126 3.72329 18.4046 3.66715 18.6581 3.76872C18.9118 3.8703 19.0771 4.1096 19.0771 4.37502V14C19.0771 14.3624 18.7732 14.6563 18.3984 14.6563H3.91896C3.54411 14.6563 3.24023 14.3624 3.24023 14V4.37502C3.24023 4.1096 3.4056 3.8703 3.65922 3.76872ZM4.59768 5.95935V13.3438H17.7197V5.95935L15.2584 8.33906C14.9934 8.59534 14.5637 8.59534 14.2986 8.33906L11.1587 5.3031L8.01875 8.33906C7.7537 8.59534 7.32395 8.59534 7.05889 8.33906L4.59768 5.95935ZM3.24023 16.625C3.24023 16.2626 3.54411 15.9688 3.91896 15.9688H18.3984C18.7732 15.9688 19.0771 16.2626 19.0771 16.625C19.0771 16.9874 18.7732 17.2813 18.3984 17.2813H3.91896C3.54411 17.2813 3.24023 16.9874 3.24023 16.625Z" fill="#4D4AFB"/>
</g>
</svg>
