
<svg width="10" height="11" viewBox="0 0 10 11" fill="none" xmlns="http://www.w3.org/2000/svg">
<path id="close" d="M5 5.98627L1.0018 9.98309C0.892682 10.0922 0.755523 10.148 0.59032 10.1505C0.42513 10.153 0.28545 10.0972 0.171278 9.98309C0.0570925 9.86896 0 9.73058 0 9.56797C0 9.40536 0.0570925 9.26699 0.171278 9.15285L4.16946 5.15601L0.171278 1.15917C0.0621496 1.05009 0.00632452 0.912981 0.00380254 0.747834C0.00126742 0.582701 0.0570925 0.443067 0.171278 0.328934C0.28545 0.214788 0.42387 0.157715 0.586537 0.157715C0.749205 0.157715 0.887625 0.214788 1.0018 0.328934L5 4.32576L8.9982 0.328934C9.10732 0.219843 9.24448 0.164037 9.40968 0.161516C9.57487 0.158982 9.71455 0.214788 9.82872 0.328934C9.94291 0.443067 10 0.58144 10 0.744052C10 0.906664 9.94291 1.04504 9.82872 1.15917L5.83054 5.15601L9.82872 9.15285C9.93785 9.26193 9.99368 9.39904 9.9962 9.56419C9.99873 9.72932 9.94291 9.86896 9.82872 9.98309C9.71455 10.0972 9.57613 10.1543 9.41346 10.1543C9.2508 10.1543 9.11238 10.0972 8.9982 9.98309L5 5.98627Z" fill="#4F4F4F"/>
</svg>
