
<svg width="8" height="5" viewBox="0 0 8 5" className='menuicon' fill="none" xmlns="http://www.w3.org/2000/svg">
<path id="expand_more" d="M3.56492 4.02C3.48445 4.02 3.40956 4.00716 3.34024 3.98148C3.2709 3.95579 3.20499 3.91171 3.14251 3.84923L0.141945 0.848665C0.0494983 0.756229 0.00220645 0.640036 6.99676e-05 0.500086C-0.00207764 0.360136 0.0452142 0.2418 0.141945 0.145079C0.238666 0.0483593 0.355927 0 0.49373 0C0.631533 0 0.748794 0.0483593 0.845514 0.145079L3.56492 2.86448L6.28432 0.145079C6.37676 0.0526434 6.49295 0.00535158 6.6329 0.00320398C6.77284 0.0010675 6.89117 0.0483593 6.98789 0.145079C7.08462 0.2418 7.13299 0.359067 7.13299 0.496881C7.13299 0.634684 7.08462 0.751945 6.98789 0.848665L3.98732 3.84923C3.92484 3.91171 3.85893 3.95579 3.7896 3.98148C3.72027 4.00716 3.64538 4.02 3.56492 4.02Z" fill="#4F4F4F"/>
</svg>
