
<svg width="16" height="19" viewBox="0 0 16 19" fill="none" xmlns="http://www.w3.org/2000/svg">
<path d="M3 18.2757C2.45 18.2757 1.97917 18.0796 1.5875 17.6875C1.19583 17.2953 1 16.8239 1 16.2733V3.25753C0.716667 3.25753 0.479167 3.16158 0.2875 2.96969C0.0958333 2.77779 0 2.54 0 2.25632C0 1.97265 0.0958333 1.73486 0.2875 1.54296C0.479167 1.35106 0.716667 1.25512 1 1.25512H5C5 0.971439 5.09583 0.733652 5.2875 0.541754C5.47917 0.349855 5.71667 0.253906 6 0.253906H10C10.2833 0.253906 10.5208 0.349855 10.7125 0.541754C10.9042 0.733652 11 0.971439 11 1.25512H15C15.2833 1.25512 15.5208 1.35106 15.7125 1.54296C15.9042 1.73486 16 1.97265 16 2.25632C16 2.54 15.9042 2.77779 15.7125 2.96969C15.5208 3.16158 15.2833 3.25753 15 3.25753V16.2733C15 16.8239 14.8042 17.2953 14.4125 17.6875C14.0208 18.0796 13.55 18.2757 13 18.2757H3ZM13 3.25753H3V16.2733H13V3.25753ZM6 14.2708C6.28333 14.2708 6.52083 14.1749 6.7125 13.983C6.90417 13.7911 7 13.5533 7 13.2696V6.26116C7 5.97749 6.90417 5.7397 6.7125 5.5478C6.52083 5.3559 6.28333 5.25995 6 5.25995C5.71667 5.25995 5.47917 5.3559 5.2875 5.5478C5.09583 5.7397 5 5.97749 5 6.26116V13.2696C5 13.5533 5.09583 13.7911 5.2875 13.983C5.47917 14.1749 5.71667 14.2708 6 14.2708ZM10 14.2708C10.2833 14.2708 10.5208 14.1749 10.7125 13.983C10.9042 13.7911 11 13.5533 11 13.2696V6.26116C11 5.97749 10.9042 5.7397 10.7125 5.5478C10.5208 5.3559 10.2833 5.25995 10 5.25995C9.71667 5.25995 9.47917 5.3559 9.2875 5.5478C9.09583 5.7397 9 5.97749 9 6.26116V13.2696C9 13.5533 9.09583 13.7911 9.2875 13.983C9.47917 14.1749 9.71667 14.2708 10 14.2708Z" fill="#5350F8"/>
</svg>
