
<svg width="8" height="5" viewBox="0 0 8 5" fill="none" xmlns="http://www.w3.org/2000/svg">
<path d="M3.99823 4.5C3.90799 4.5 3.82399 4.48563 3.74624 4.45688C3.66848 4.42813 3.59456 4.37878 3.52448 4.30884L0.159199 0.949998C0.0555148 0.846525 0.00247464 0.716459 7.84721e-05 0.559798C-0.00233018 0.403137 0.05071 0.270671 0.159199 0.162402C0.267675 0.0541336 0.39919 0 0.553743 0C0.708295 0 0.83981 0.0541336 0.948286 0.162402L3.99823 3.20651L7.04818 0.162402C7.15185 0.0589292 7.28217 0.00599058 7.43913 0.00358654C7.59608 0.00119496 7.72879 0.0541336 7.83727 0.162402C7.94576 0.270671 8 0.401941 8 0.55621C8 0.710467 7.94576 0.84173 7.83727 0.949998L4.47198 4.30884C4.40191 4.37878 4.32799 4.42813 4.25022 4.45688C4.17247 4.48563 4.08848 4.5 3.99823 4.5Z" fill="#5350F8"/>
</svg>
