
<svg width="8" height="5" viewBox="0 0 8 5" fill="none" xmlns="http://www.w3.org/2000/svg">
<path d="M4.00177 0C4.09201 0 4.17601 0.0143743 4.25376 0.0431232C4.33152 0.0718718 4.40544 0.121217 4.47552 0.191158L7.8408 3.55C7.94449 3.65347 7.99753 3.78354 7.99992 3.9402C8.00233 4.09686 7.94929 4.22933 7.8408 4.3376C7.73232 4.44587 7.60081 4.5 7.44626 4.5C7.2917 4.5 7.16019 4.44587 7.05171 4.3376L4.00177 1.29349L0.951821 4.3376C0.848149 4.44107 0.717833 4.49401 0.560872 4.49641C0.403923 4.49881 0.27121 4.44587 0.162733 4.3376C0.054244 4.22933 0 4.09806 0 3.94379C0 3.78953 0.054244 3.65827 0.162733 3.55L3.52802 0.191158C3.59809 0.121217 3.67201 0.0718718 3.74978 0.0431232C3.82753 0.0143743 3.91152 0 4.00177 0Z" fill="#5350F8"/>
</svg>
