
<svg width="12" height="11" viewBox="0 0 12 11" fill="none" xmlns="http://www.w3.org/2000/svg">
<path d="M8.73066 3.76329C8.3089 3.76329 7.88852 3.61323 7.56424 3.31955C7.42296 3.19156 7.41236 2.97348 7.54073 2.83261C7.66911 2.69198 7.88782 2.68141 8.0291 2.80917C8.37942 3.12652 8.91711 3.16467 9.30799 2.9004C9.7021 2.63361 9.86504 2.11817 9.69541 1.67444C9.52533 1.22955 9.05724 0.953333 8.58316 1.01974C8.08188 1.08891 7.68916 1.53886 7.68916 2.04395C7.68916 2.23445 7.53451 2.38865 7.34345 2.38865C7.15239 2.38865 6.99774 2.23445 6.99774 2.04395C6.99774 1.18796 7.63845 0.454214 8.4882 0.336788C9.27757 0.227634 10.0575 0.686769 10.3412 1.42855C10.624 2.16781 10.3525 3.02656 9.69611 3.47076C9.40663 3.66701 9.06807 3.76329 8.73066 3.76329Z" fill="#5350F8"/>
<path d="M3.19947 7.21029C2.77771 7.21029 2.35733 7.06023 2.03305 6.76655C1.89177 6.63855 1.88117 6.42048 2.00954 6.27961C2.13815 6.13874 2.3564 6.1284 2.49791 6.25617C2.84823 6.57352 3.38569 6.61167 3.7768 6.3474C4.17091 6.08061 4.33385 5.56517 4.16423 5.12143C3.99414 4.67655 3.52605 4.40102 3.05197 4.46674C2.55069 4.53591 2.15797 4.98585 2.15797 5.49095C2.15797 5.68145 2.00332 5.83564 1.81226 5.83564C1.6212 5.83564 1.46655 5.68145 1.46655 5.49095C1.46655 4.63495 2.10726 3.90121 2.95701 3.78379C3.74661 3.67371 4.5263 4.13377 4.81001 4.87555C5.0928 5.61481 4.8213 6.47356 4.16492 6.91776C3.87544 7.114 3.53688 7.21029 3.19947 7.21029Z" fill="#5350F8"/>
<path d="M8.73066 10.6575C8.3089 10.6575 7.88852 10.5074 7.56424 10.2138C7.42296 10.0858 7.41236 9.86769 7.54073 9.72682C7.66911 9.58619 7.88782 9.57584 8.0291 9.70338C8.37942 10.0207 8.91711 10.0589 9.30799 9.79461C9.7021 9.52782 9.86504 9.01238 9.69541 8.56864C9.52533 8.12376 9.05724 7.848 8.58316 7.91395C8.08188 7.98312 7.68916 8.43306 7.68916 8.93816C7.68916 9.12866 7.53451 9.28285 7.34345 9.28285C7.15239 9.28285 6.99774 9.12866 6.99774 8.93816C6.99774 8.08216 7.63845 7.34842 8.4882 7.231C9.27757 7.12115 10.0575 7.58098 10.3412 8.32276C10.624 9.06202 10.3525 9.92077 9.69611 10.365C9.40663 10.5612 9.06807 10.6575 8.73066 10.6575Z" fill="#5350F8"/>
<path d="M7.34348 2.38778H0.429326C0.238265 2.38778 0.0836182 2.23377 0.0836182 2.0435C0.0836182 1.85323 0.238265 1.69922 0.429326 1.69922H7.34348C7.53454 1.69922 7.68919 1.85323 7.68919 2.0435C7.68919 2.23377 7.53454 2.38778 7.34348 2.38778Z" fill="#5350F8"/>
<path d="M11.4917 2.38778H10.1089C9.91783 2.38778 9.76318 2.23377 9.76318 2.0435C9.76318 1.85323 9.91783 1.69922 10.1089 1.69922H11.4917C11.6828 1.69922 11.8374 1.85323 11.8374 2.0435C11.8374 2.23377 11.6828 2.38778 11.4917 2.38778Z" fill="#5350F8"/>
<path d="M11.4917 9.28231H10.1089C9.91783 9.28231 9.76318 9.1283 9.76318 8.93803C9.76318 8.74776 9.91783 8.59375 10.1089 8.59375H11.4917C11.6828 8.59375 11.8374 8.74776 11.8374 8.93803C11.8374 9.1283 11.6828 9.28231 11.4917 9.28231Z" fill="#5350F8"/>
<path d="M7.34348 9.28231H0.429326C0.238265 9.28231 0.0836182 9.1283 0.0836182 8.93803C0.0836182 8.74776 0.238265 8.59375 0.429326 8.59375H7.34348C7.53454 8.59375 7.68919 8.74776 7.68919 8.93803C7.68919 9.1283 7.53454 9.28231 7.34348 9.28231Z" fill="#5350F8"/>
<path d="M11.4922 5.83504H4.57807C4.38701 5.83504 4.23236 5.68104 4.23236 5.49076C4.23236 5.30049 4.38701 5.14648 4.57807 5.14648H11.4922C11.6833 5.14648 11.8379 5.30049 11.8379 5.49076C11.8379 5.68104 11.6833 5.83504 11.4922 5.83504Z" fill="#5350F8"/>
<path d="M1.81216 5.83504H0.429326C0.238265 5.83504 0.0836182 5.68104 0.0836182 5.49076C0.0836182 5.30049 0.238265 5.14648 0.429326 5.14648H1.81216C2.00322 5.14648 2.15786 5.30049 2.15786 5.49076C2.15786 5.68104 2.00322 5.83504 1.81216 5.83504Z" fill="#5350F8"/>
</svg>
