
<svg width="15" height="16" viewBox="0 0 15 16" fill="none" className='menuicon' xmlns="http://www.w3.org/2000/svg">
<g opacity="0.8" clip-path="url(#clip0_140_2529)">
<path d="M14.7481 7.20583L8.01807 1.07348C7.72267 0.804273 7.27721 0.804302 6.98193 1.07345L0.251895 7.20586C0.0152649 7.42149 -0.062899 7.75371 0.0527063 8.05222C0.168341 8.35072 0.449883 8.54358 0.77001 8.54358H1.84491V14.6877C1.84491 14.9313 2.04243 15.1289 2.28603 15.1289H5.97491C6.21851 15.1289 6.41603 14.9314 6.41603 14.6877V10.9572H8.58406V14.6878C8.58406 14.9314 8.78158 15.1289 9.02518 15.1289H12.7139C12.9575 15.1289 13.155 14.9314 13.155 14.6878V8.54358H14.2301C14.5502 8.54358 14.8318 8.35069 14.9474 8.05222C15.0629 7.75368 14.9847 7.42149 14.7481 7.20583Z" fill="#828282"/>
<path d="M13.0398 1.75195H10.0773L13.4809 4.84675V2.19305C13.4809 1.94944 13.2834 1.75195 13.0398 1.75195Z" fill="#333333"/>
</g>
<defs>
<clipPath id="clip0_140_2529">
<rect width="15" height="15" fill="white" transform="translate(0 0.5)"/>
</clipPath>
</defs>
</svg>
