
<svg width="9" height="6" viewBox="0 0 9 6" fill="none" xmlns="http://www.w3.org/2000/svg">
<path d="M3.8192 4.90744L0.460589 1.54886C0.41426 1.50253 0.377772 1.4508 0.351126 1.39368C0.32448 1.33653 0.311157 1.2753 0.311157 1.21C0.311157 1.0794 0.355319 0.965935 0.443642 0.8696C0.531947 0.773266 0.648346 0.725098 0.792839 0.725098H7.86834C8.01283 0.725098 8.12923 0.773728 8.21754 0.870986C8.30586 0.968262 8.35002 1.08174 8.35002 1.21142C8.35002 1.24385 8.30014 1.35641 8.20038 1.54908L4.84198 4.90747C4.76478 4.98467 4.68497 5.04104 4.60257 5.07657C4.52014 5.1121 4.42948 5.12986 4.33059 5.12986C4.2317 5.12986 4.14104 5.1121 4.05861 5.07657C3.9762 5.04104 3.8964 4.98466 3.8192 4.90744Z" fill="#BDBDBD"/>
</svg>
