
<svg width="7" height="11" viewBox="0 0 7 11" fill="none" xmlns="http://www.w3.org/2000/svg">
<path d="M4.76837e-06 5.66149C4.76837e-06 5.78199 0.0192342 5.89414 0.0576935 5.99795C0.0961533 6.10178 0.162166 6.20048 0.255732 6.29405L4.74912 10.7874C4.88754 10.9259 5.06154 10.9967 5.27112 10.9999C5.4807 11.0031 5.65791 10.9323 5.80275 10.7874C5.94759 10.6426 6.02 10.467 6.02 10.2606C6.02 10.0543 5.94759 9.87867 5.80275 9.73383L1.73041 5.66149L5.80275 1.58915C5.94117 1.45073 6.01199 1.27673 6.01521 1.06715C6.01841 0.85759 5.94759 0.680388 5.80275 0.535549C5.65791 0.390693 5.4823 0.318265 5.27592 0.318265C5.06956 0.318265 4.89396 0.390693 4.74912 0.535549L0.255732 5.02893C0.162166 5.1225 0.0961533 5.2212 0.0576935 5.32503C0.0192342 5.42884 4.76837e-06 5.541 4.76837e-06 5.66149Z" fill="#828282"/>
</svg>
