
<svg width="15" height="11" viewBox="0 0 15 11" fill="none" xmlns="http://www.w3.org/2000/svg">
    <path d="M13.1488 10.4092H1.49355C1.1147 10.4087 0.751502 10.2579 0.48363 9.98966C0.215758 9.72146 0.0650948 9.35784 0.0646973 8.97857V1.77237C0.0650948 1.39311 0.215758 1.02949 0.48363 0.761291C0.751502 0.493096 1.1147 0.342231 1.49355 0.341797H13.1488C13.5277 0.342231 13.8909 0.493096 14.1588 0.761291C14.4266 1.02949 14.5773 1.39311 14.5777 1.77237V8.97857C14.5773 9.35784 14.4266 9.72146 14.1588 9.98966C13.8909 10.2579 13.5277 10.4087 13.1488 10.4092ZM1.49355 0.888549C1.2595 0.888803 1.0351 0.982006 0.869613 1.1477C0.704124 1.3134 0.61106 1.53806 0.610843 1.77237V8.97857C0.61106 9.21289 0.704124 9.43754 0.869613 9.60324C1.0351 9.76894 1.2595 9.86214 1.49355 9.8624H13.1488C13.3829 9.86214 13.6073 9.76894 13.7728 9.60324C13.9383 9.43754 14.0313 9.21289 14.0316 8.97857V1.77237C14.0313 1.53806 13.9383 1.3134 13.7728 1.1477C13.6073 0.982006 13.3829 0.888803 13.1488 0.888549H1.49355Z" fill="#8A8A8A"/>
    <path d="M7.32152 6.98416C7.25496 6.98419 7.19067 6.95989 7.14075 6.91581L0.559692 1.10001L0.921104 0.689941L7.32152 6.34664L13.7222 0.690625L14.0836 1.10069L7.50257 6.91649C7.45251 6.96045 7.3881 6.98452 7.32152 6.98416Z" fill="#8A8A8A"/>
    <path d="M0.410889 9.55078L4.83197 4.50783L5.24267 4.86868L0.82159 9.91164L0.410889 9.55078Z" fill="#8A8A8A"/>
    <path d="M9.41357 4.86328L9.82428 4.50242L14.2454 9.54548L13.8347 9.90634L9.41357 4.86328Z" fill="#8A8A8A"/>
</svg>
