
<svg width="7" height="7" viewBox="0 0 7 7" fill="none" xmlns="http://www.w3.org/2000/svg">
<path d="M3.67292 3.80141C3.67292 3.87361 3.66238 3.94081 3.64129 4.00301C3.62019 4.06522 3.58399 4.12435 3.53268 4.18041L1.06834 6.87264C0.992422 6.95559 0.896994 6.99802 0.782054 6.99994C0.667114 7.00186 0.569926 6.95943 0.49049 6.87264C0.411055 6.78586 0.371338 6.68065 0.371338 6.55701C0.371338 6.43336 0.411055 6.32815 0.49049 6.24137L2.72391 3.80141L0.49049 1.36146C0.414573 1.27852 0.375733 1.17427 0.373969 1.0487C0.372215 0.923139 0.411055 0.816968 0.49049 0.730187C0.569926 0.643396 0.666236 0.6 0.779422 0.6C0.892598 0.6 0.988903 0.643396 1.06834 0.730187L3.53268 3.42241C3.58399 3.47848 3.62019 3.53761 3.64129 3.59982C3.66238 3.66202 3.67292 3.72922 3.67292 3.80141Z" fill="#4643EC"/>
<path d="M6.97419 3.80141C6.97419 3.87361 6.96365 3.94081 6.94256 4.00301C6.92146 4.06522 6.88526 4.12435 6.83394 4.18041L4.36961 6.87264C4.29369 6.95559 4.19826 6.99802 4.08332 6.99994C3.96838 7.00186 3.8712 6.95943 3.79176 6.87264C3.71232 6.78586 3.67261 6.68065 3.67261 6.55701C3.67261 6.43336 3.71232 6.32815 3.79176 6.24137L6.02518 3.80141L3.79176 1.36146C3.71584 1.27852 3.677 1.17427 3.67524 1.0487C3.67348 0.923139 3.71232 0.816968 3.79176 0.730187C3.8712 0.643396 3.96751 0.6 4.08069 0.6C4.19387 0.6 4.29017 0.643396 4.36961 0.730187L6.83394 3.42241C6.88526 3.47848 6.92146 3.53761 6.94256 3.59982C6.96365 3.66202 6.97419 3.72922 6.97419 3.80141Z" fill="#4643EC"/>
</svg>
