
<svg width="34" height="34" viewBox="0 0 34 34" fill="none" xmlns="http://www.w3.org/2000/svg">
<circle opacity="0.1" cx="17" cy="17" r="17" fill="#5350F8"/>
<path d="M24.2915 20.722C23.1642 19.768 22.5177 18.3735 22.5177 16.8961V14.8148C22.5177 12.1878 20.5687 10.0132 18.044 9.64894V8.84271C18.044 8.42988 17.71 8.09619 17.2984 8.09619C16.8868 8.09619 16.5528 8.42988 16.5528 8.84271V9.64894C14.0274 10.0132 12.0791 12.1878 12.0791 14.8148V16.8961C12.0791 18.3735 11.4327 19.768 10.2986 20.728C10.0086 20.9766 9.84229 21.3379 9.84229 21.7201C9.84229 22.4405 10.4276 23.0265 11.1471 23.0265H23.4497C24.1693 23.0265 24.7546 22.4405 24.7546 21.7201C24.7546 21.3379 24.5883 20.9766 24.2915 20.722Z" fill="#5350F8"/>
<path d="M17.2982 26.0125C18.6485 26.0125 19.7781 25.0487 20.0376 23.7729H14.5588C14.8183 25.0487 15.9479 26.0125 17.2982 26.0125Z" fill="#5350F8"/>
</svg>
