
<svg width="9" height="7" viewBox="0 0 9 7" fill="none" xmlns="http://www.w3.org/2000/svg">
<path d="M4.3333 3.80141C4.3333 3.87361 4.34547 3.94081 4.3698 4.00301C4.39414 4.06522 4.43592 4.12435 4.49513 4.18041L7.33859 6.87264C7.42619 6.95559 7.5363 6.99802 7.66892 6.99994C7.80154 7.00186 7.91368 6.95943 8.00534 6.87264C8.09699 6.78586 8.14282 6.68065 8.14282 6.55701C8.14282 6.43336 8.09699 6.32815 8.00534 6.24137L5.42832 3.80141L8.00534 1.36146C8.09294 1.27852 8.13775 1.17427 8.13979 1.0487C8.14181 0.923139 8.09699 0.816968 8.00534 0.730187C7.91368 0.643396 7.80255 0.6 7.67196 0.6C7.54137 0.6 7.43025 0.643396 7.33859 0.730187L4.49513 3.42241C4.43592 3.47848 4.39414 3.53761 4.3698 3.59982C4.34547 3.66202 4.3333 3.72922 4.3333 3.80141Z" fill="#4643EC"/>
<path d="M0.523728 3.80141C0.523728 3.87361 0.535897 3.94081 0.560234 4.00301C0.584572 4.06522 0.626345 4.12435 0.685555 4.18041L3.52902 6.87264C3.61662 6.95559 3.72673 6.99802 3.85935 6.99994C3.99197 7.00186 4.10411 6.95943 4.19577 6.87264C4.28742 6.78586 4.33325 6.68065 4.33325 6.55701C4.33325 6.43336 4.28742 6.32815 4.19577 6.24137L1.61875 3.80141L4.19577 1.36146C4.28336 1.27852 4.32818 1.17427 4.33022 1.0487C4.33224 0.923139 4.28742 0.816968 4.19577 0.730187C4.10411 0.643396 3.99298 0.6 3.86239 0.6C3.7318 0.6 3.62068 0.643396 3.52902 0.730187L0.685555 3.42241C0.626345 3.47848 0.584572 3.53761 0.560234 3.59982C0.535897 3.66202 0.523728 3.72922 0.523728 3.80141Z" fill="#4643EC"/>
</svg>
