
<svg width="11" height="15" viewBox="0 0 11 15" fill="none" xmlns="http://www.w3.org/2000/svg">
    <path d="M5.35542 0.772461C3.15563 0.772461 1.3958 2.53425 1.3958 4.73648V6.49827C0.647873 6.49827 0.0759277 7.07085 0.0759277 7.81961V13.5454C0.0759277 14.2942 0.647873 14.8668 1.3958 14.8668H9.31505C10.063 14.8668 10.6349 14.2942 10.6349 13.5454V7.81961C10.6349 7.07085 10.063 6.49827 9.31505 6.49827V4.73648C9.31505 2.53425 7.55521 0.772461 5.35542 0.772461ZM9.755 7.81961V13.5454C9.755 13.8097 9.57902 13.9859 9.31505 13.9859H1.3958C1.13183 13.9859 0.955844 13.8097 0.955844 13.5454V7.81961C0.955844 7.55534 1.13183 7.37916 1.3958 7.37916H1.83576H8.87509H9.31505C9.57902 7.37916 9.755 7.55534 9.755 7.81961ZM2.27572 6.49827V4.73648C2.27572 3.01874 3.63959 1.65335 5.35542 1.65335C7.07126 1.65335 8.43513 3.01874 8.43513 4.73648V6.49827H2.27572Z" fill="#8A8A8A"/>
    <path d="M5.3554 8.7002C4.60747 8.7002 4.03552 9.27278 4.03552 10.0215C4.03552 10.5941 4.38749 11.0786 4.91544 11.2548V12.2238C4.91544 12.488 5.09142 12.6642 5.3554 12.6642C5.61937 12.6642 5.79535 12.488 5.79535 12.2238V11.2548C6.3233 11.0786 6.67527 10.5941 6.67527 10.0215C6.67527 9.27278 6.10332 8.7002 5.3554 8.7002ZM5.3554 10.462C5.09142 10.462 4.91544 10.2858 4.91544 10.0215C4.91544 9.75727 5.09142 9.58109 5.3554 9.58109C5.61937 9.58109 5.79535 9.75727 5.79535 10.0215C5.79535 10.2858 5.61937 10.462 5.3554 10.462Z" fill="#8A8A8A"/>
</svg>
