
<svg width="10" height="6" viewBox="0 0 10 6" fill="none" xmlns="http://www.w3.org/2000/svg">
<path d="M4.7149 5.02C4.61442 5.02 4.52089 5.00396 4.43432 4.97189C4.34774 4.93982 4.26544 4.88478 4.18741 4.80675L0.440439 1.05978C0.324995 0.944346 0.265939 0.79925 0.263271 0.624486C0.260589 0.449722 0.319645 0.301949 0.440439 0.181169C0.561219 0.060389 0.70765 0 0.879732 0C1.05181 0 1.19824 0.060389 1.31902 0.181169L4.7149 3.57704L8.11077 0.181169C8.2262 0.0657388 8.37129 0.00668282 8.54606 0.00400098C8.72081 0.00133304 8.86857 0.060389 8.98935 0.181169C9.11015 0.301949 9.17054 0.448387 9.17054 0.620483C9.17054 0.792565 9.11015 0.938996 8.98935 1.05978L5.24238 4.80675C5.16435 4.88478 5.08205 4.93982 4.99547 4.97189C4.9089 5.00396 4.81537 5.02 4.7149 5.02Z" fill="#333333"/>
</svg>
