
<svg width="11" height="10" viewBox="0 0 11 10" fill="none" xmlns="http://www.w3.org/2000/svg">
<path d="M1.56533 9.53102L4.05844 7.04822C4.37965 7.31232 4.74905 7.51902 5.16662 7.6683C5.5842 7.81758 6.01618 7.89222 6.46258 7.89222C7.56059 7.89222 8.48987 7.51361 9.25042 6.7564C10.011 5.99919 10.3912 5.07399 10.3912 3.98081C10.3912 2.88761 10.0111 1.96207 9.25071 1.20419C8.49035 0.446318 7.56131 0.0673828 6.46358 0.0673828C5.36586 0.0673828 4.43648 0.446085 3.67546 1.20349C2.91443 1.96089 2.53392 2.88633 2.53392 3.9798C2.53392 4.43666 2.61093 4.87301 2.76495 5.28887C2.91897 5.70472 3.12447 6.06643 3.38144 6.37401L0.888331 8.85681L1.56533 9.53102ZM6.46258 6.93259C5.63484 6.93259 4.93373 6.64654 4.35925 6.07444C3.78478 5.50234 3.49754 4.80412 3.49754 3.9798C3.49754 3.15548 3.78478 2.45727 4.35925 1.88516C4.93373 1.31306 5.63484 1.02701 6.46258 1.02701C7.29033 1.02701 7.99144 1.31306 8.56591 1.88516C9.14038 2.45727 9.42761 3.15548 9.42761 3.9798C9.42761 4.80412 9.14038 5.50234 8.56591 6.07444C7.99144 6.64654 7.29033 6.93259 6.46258 6.93259Z" fill="white"/>
</svg>
