
<svg width="12" height="13" viewBox="0 0 12 13" fill="none" xmlns="http://www.w3.org/2000/svg">
<g clip-path="url(#clip0_120_25232)">
<path d="M11.9687 5.19538C11.8902 4.95277 11.6746 4.78046 11.4197 4.75751L7.95614 4.44351L6.58656 1.24285C6.48558 1.00828 6.25559 0.856445 6.00006 0.856445C5.74453 0.856445 5.51454 1.00828 5.41356 1.2434L4.04399 4.44351L0.579908 4.75751C0.325385 4.781 0.110414 4.95277 0.0314019 5.19538C-0.0476102 5.43799 0.0253592 5.7041 0.2179 5.87184L2.83592 8.1643L2.06392 11.5597C2.00744 11.8093 2.10448 12.0674 2.31195 12.2171C2.42346 12.2976 2.55393 12.3385 2.68549 12.3385C2.79893 12.3385 2.91145 12.308 3.01244 12.2476L6.00006 10.4648L8.98659 12.2476C9.20513 12.3789 9.48062 12.3669 9.68762 12.2171C9.89518 12.0669 9.99214 11.8088 9.93565 11.5597L9.16366 8.1643L11.7817 5.8723C11.9742 5.7041 12.0477 5.43845 11.9687 5.19538Z" fill="#FFC107"/>
</g>
<defs>
<clipPath id="clip0_120_25232">
<rect width="12" height="11.9814" fill="white" transform="translate(0 0.599121)"/>
</clipPath>
</defs>
</svg>
