
<svg width="9" height="5" viewBox="0 0 9 5" fill="none" xmlns="http://www.w3.org/2000/svg">
<path d="M4.53078 0.222438L7.88939 3.58102C7.93572 3.62735 7.9722 3.67908 7.99885 3.73621C8.0255 3.79335 8.03882 3.85458 8.03882 3.91988C8.03882 4.05048 7.99466 4.16395 7.90633 4.26028C7.81803 4.35662 7.70163 4.40479 7.55714 4.40479H0.481636C0.337142 4.40479 0.220744 4.35616 0.132439 4.2589C0.044116 4.16162 -4.48227e-05 4.04814 -4.48227e-05 3.91847C-4.48227e-05 3.88603 0.0498357 3.77348 0.149599 3.58081L3.50799 0.222412C3.5852 0.145209 3.665 0.0888433 3.74741 0.0533152C3.82983 0.017787 3.92049 2.28882e-05 4.01939 2.28882e-05C4.11828 2.28882e-05 4.20894 0.017787 4.29136 0.0533152C4.37377 0.0888433 4.45358 0.145218 4.53078 0.222438Z" fill="#828282"/>
</svg>
