
<svg width="12" height="16" viewBox="0 0 12 16" fill="none" className='menuicon' xmlns="http://www.w3.org/2000/svg">
<g opacity="0.8" clip-path="url(#clip0_140_2553)">
<path d="M11.3277 1.76557C11.0789 1.51625 10.748 1.37891 10.396 1.37891H9.81167V1.96484C9.81167 2.61102 9.28655 3.13672 8.64108 3.13672H3.37351C2.72804 3.13672 2.20292 2.61102 2.20292 1.96484V1.37891H1.61666C0.891329 1.37891 0.300587 1.96965 0.299767 2.6958L0.28711 14.1802C0.2867 14.5326 0.423517 14.864 0.672276 15.1133C0.921095 15.3627 1.25197 15.5 1.604 15.5H10.3833C11.1086 15.5 11.6994 14.9093 11.7002 14.1831L11.7129 2.69873C11.7133 2.34632 11.5765 2.01491 11.3277 1.76557ZM6.14924 5.77344H9.26798C9.51041 5.77344 9.70693 5.9702 9.70693 6.21289C9.70693 6.45559 9.51041 6.65234 9.26798 6.65234H6.14924C5.90681 6.65234 5.71028 6.45559 5.71028 6.21289C5.71028 5.9702 5.90681 5.77344 6.14924 5.77344ZM6.14924 8.70312H9.26798C9.51041 8.70312 9.70693 8.89988 9.70693 9.14258C9.70693 9.38527 9.51041 9.58203 9.26798 9.58203H6.14924C5.90681 9.58203 5.71028 9.38527 5.71028 9.14258C5.71028 8.89988 5.90681 8.70312 6.14924 8.70312ZM6.14924 11.6328H9.28052C9.52295 11.6328 9.71947 11.8296 9.71947 12.0723C9.71947 12.315 9.52295 12.5117 9.28052 12.5117H6.14924C5.90681 12.5117 5.71028 12.315 5.71028 12.0723C5.71028 11.8296 5.90681 11.6328 6.14924 11.6328ZM2.40911 5.79078C2.58056 5.61916 2.85847 5.61916 3.02991 5.79078L3.26859 6.02976L4.28092 5.01632C4.45236 4.84473 4.73027 4.84467 4.90169 5.01632C5.07311 5.18791 5.07311 5.46617 4.90169 5.63779L3.57897 6.96195C3.49664 7.04436 3.38499 7.09068 3.26857 7.09068C3.15214 7.09068 3.04049 7.04439 2.95816 6.96195L2.40908 6.41223C2.23767 6.24063 2.23767 5.96237 2.40911 5.79078ZM2.40911 8.94421C2.58056 8.77259 2.85847 8.77259 3.02991 8.94421L3.26859 9.18315L4.28092 8.16972C4.45233 7.99813 4.73027 7.99813 4.90169 8.16972C5.07311 8.34131 5.07311 8.61957 4.90169 8.79119L3.57897 10.1154C3.49667 10.1978 3.38499 10.2441 3.26857 10.2441C3.15214 10.2441 3.04049 10.1978 2.95816 10.1154L2.40908 9.56565C2.23767 9.39406 2.23767 9.11583 2.40911 8.94421ZM2.40911 11.8739C2.58056 11.7023 2.85847 11.7023 3.02991 11.8739L3.26859 12.1128L4.28092 11.0994C4.45233 10.9278 4.73027 10.9278 4.90169 11.0994C5.07311 11.271 5.07311 11.5493 4.90169 11.7209L3.57897 13.0451C3.49667 13.1275 3.38499 13.1738 3.26857 13.1738C3.15214 13.1738 3.04049 13.1275 2.95816 13.0451L2.40908 12.4953C2.23767 12.3238 2.23767 12.0455 2.40911 11.8739Z" fill="#828282"/>
<path d="M3.08089 1.96484C3.08089 2.12665 3.2119 2.25781 3.37353 2.25781H8.64111C8.80274 2.25781 8.93376 2.12665 8.93376 1.96484V0.792969C8.93376 0.631162 8.80274 0.5 8.64111 0.5H3.37353C3.2119 0.5 3.08089 0.631162 3.08089 0.792969V1.96484Z" fill="#333333"/>
</g>
<defs>
<clipPath id="clip0_140_2553">
<rect width="12" height="15" fill="white" transform="translate(0 0.5)"/>
</clipPath>
</defs>
</svg>
