
<svg width="17" height="16" viewBox="0 0 17 16" fill="none" className='menuicon' xmlns="http://www.w3.org/2000/svg">
<g opacity="0.8" clip-path="url(#clip0_140_2539)">
<path d="M14.423 12.0064C13.948 12.0064 13.5036 11.7726 13.2345 11.3812L12.5287 10.3545C11.6973 11.8453 10.1168 12.8077 8.33334 12.8077C5.84468 12.8077 3.79155 10.9068 3.5495 8.48075H4.00643C4.18495 8.48075 4.34881 8.38183 4.43192 8.22379C4.51502 8.06578 4.50373 7.8747 4.40259 7.7276L3.70174 6.7082L2.63977 5.16348C2.55012 5.03304 2.40194 4.95508 2.24361 4.95508C2.22382 4.95508 2.20419 4.95628 2.18479 4.95866C2.16539 4.96104 2.14628 4.96462 2.1275 4.96927C2.08056 4.98096 2.03576 4.99961 1.99465 5.02451C1.9371 5.05934 1.88664 5.10638 1.84742 5.16344L0.0845954 7.72757C-0.0165438 7.87467 -0.0278393 8.06578 0.055266 8.22376C0.138371 8.38173 0.302238 8.48075 0.480786 8.48075H0.976879C1.09127 10.2689 1.84234 11.9342 3.12072 13.2126C4.51307 14.605 6.36427 15.3718 8.33334 15.3718C10.3024 15.3718 12.1536 14.605 13.546 13.2126C13.9161 12.8425 14.2439 12.4364 14.5253 12.0024C14.4914 12.0048 14.4573 12.0064 14.423 12.0064Z" fill="#828282"/>
<path d="M8.69969 7.51914H7.9671C7.82824 7.51914 7.71528 7.40618 7.71528 7.26731V6.90101C7.71528 6.76217 7.82824 6.64922 7.9671 6.64922H8.69969C8.83855 6.64922 8.95151 6.76217 8.95151 6.90101C8.95151 7.16653 9.16678 7.38177 9.43227 7.38177C9.69776 7.38177 9.91303 7.1665 9.91303 6.90101C9.91303 6.2706 9.4297 5.75111 8.81411 5.69323V5.43584C8.81411 5.17031 8.59884 4.95508 8.33335 4.95508C8.06782 4.95508 7.85259 5.17034 7.85259 5.43584V5.69323C7.23703 5.75111 6.75366 6.2706 6.75366 6.90101V7.26731C6.75366 7.93639 7.29796 8.48069 7.96704 8.48069H8.69962C8.83849 8.48069 8.95144 8.59365 8.95144 8.73251V9.09882C8.95144 9.23765 8.83846 9.35064 8.69962 9.35064H7.96704C7.82817 9.35064 7.71522 9.23769 7.71522 9.09885C7.71522 8.83333 7.49995 8.61809 7.23446 8.61809C6.96896 8.61809 6.75369 8.83336 6.75369 9.09885C6.75369 9.72926 7.23703 10.2488 7.85262 10.3066V10.564C7.85262 10.8295 8.06789 11.0447 8.33338 11.0447C8.59891 11.0447 8.81414 10.8295 8.81414 10.564V10.3066C9.42967 10.2487 9.91306 9.72922 9.91306 9.09882V8.73251C9.91303 8.06344 9.36876 7.51914 8.69969 7.51914Z" fill="#333333"/>
<path d="M16.6114 7.77639C16.5283 7.61838 16.3644 7.51942 16.1859 7.51942H15.6898C15.5754 5.73131 14.8243 4.06594 13.5459 2.78753C12.1536 1.39521 10.3024 0.628418 8.33335 0.628418C6.36431 0.628418 4.51305 1.39521 3.12073 2.78756C2.75058 3.15771 2.42282 3.56376 2.1414 3.99778C2.17529 3.99537 2.20934 3.99381 2.24362 3.99381C2.71871 3.99381 3.16302 4.22753 3.43212 4.619L4.13792 5.64563C4.96933 4.15491 6.54983 3.19254 8.33332 3.19254C10.822 3.19254 12.8751 5.09345 13.1172 7.51945H12.6602C12.4817 7.51945 12.3178 7.61838 12.2347 7.77642C12.1516 7.93443 12.1629 8.12551 12.2641 8.27261L12.9649 9.29201L14.0269 10.8367C14.0493 10.8693 14.0754 10.8987 14.1044 10.9243C14.1913 11.0013 14.3043 11.0451 14.4231 11.0451C14.5814 11.0451 14.7296 10.9672 14.8193 10.8367L15.4558 9.91085L16.5821 8.27264C16.6832 8.12544 16.6945 7.93436 16.6114 7.77639Z" fill="#828282"/>
</g>
<defs>
<clipPath id="clip0_140_2539">
<rect width="16.6667" height="15" fill="white" transform="translate(0 0.5)"/>
</clipPath>
</defs>
</svg>
