
<svg width="17" height="16" viewBox="0 0 17 16" fill="none" className='menuicon' xmlns="http://www.w3.org/2000/svg">
<g opacity="0.8" clip-path="url(#clip0_140_2559)">
<g opacity="0.8">
<path d="M8.33334 6.39307C9.89742 6.39307 11.1654 5.12512 11.1654 3.56104C11.1654 1.99695 9.89742 0.729004 8.33334 0.729004C6.76925 0.729004 5.5013 1.99695 5.5013 3.56104C5.5013 5.12512 6.76925 6.39307 8.33334 6.39307Z" fill="#333333"/>
<path d="M14.0625 6.39323C15.0513 6.39323 15.8529 5.59166 15.8529 4.60286C15.8529 3.61407 15.0513 2.8125 14.0625 2.8125C13.0737 2.8125 12.2721 3.61407 12.2721 4.60286C12.2721 5.59166 13.0737 6.39323 14.0625 6.39323Z" fill="#828282"/>
<path d="M2.60416 6.39323C3.59295 6.39323 4.39453 5.59166 4.39453 4.60286C4.39453 3.61407 3.59295 2.8125 2.60416 2.8125C1.61537 2.8125 0.813797 3.61407 0.813797 4.60286C0.813797 5.59166 1.61537 6.39323 2.60416 6.39323Z" fill="#828282"/>
<path d="M4.36816 8.00091C3.66341 7.4235 3.02516 7.49993 2.21029 7.49993C0.991536 7.49993 0 8.48561 0 9.69687V13.2519C0 13.7779 0.429362 14.2057 0.957357 14.2057C3.23685 14.2057 2.96224 14.2469 2.96224 14.1074C2.96224 11.5883 2.66387 9.74091 4.36816 8.00091Z" fill="#828282"/>
<path d="M9.1084 7.51302C7.68509 7.3943 6.44795 7.51439 5.38086 8.39518C3.59515 9.82552 3.93881 11.7514 3.93881 14.1074C3.93881 14.7308 4.44597 15.2474 5.07878 15.2474C11.9499 15.2474 12.2234 15.469 12.6309 14.5667C12.7645 14.2616 12.7279 14.3586 12.7279 11.4395C12.7279 9.1209 10.7203 7.51302 9.1084 7.51302Z" fill="#333333"/>
<path d="M14.4564 7.49985C13.637 7.49985 13.0023 7.4242 12.2985 8.00083C13.9901 9.72791 13.7044 11.4492 13.7044 14.1073C13.7044 14.2477 13.4765 14.2056 15.6751 14.2056C16.222 14.2056 16.6667 13.7625 16.6667 13.2179V9.69679C16.6667 8.48553 15.6751 7.49985 14.4564 7.49985Z" fill="#828282"/>
</g>
</g>
<defs>
<clipPath id="clip0_140_2559">
<rect width="16.6667" height="15" fill="white" transform="translate(0 0.5)"/>
</clipPath>
</defs>
</svg>
