<svg width="17" height="15" viewBox="0 0 17 15" fill="none" xmlns="http://www.w3.org/2000/svg">
<path d="M0.779193 14.3338C0.634673 14.3338 0.503292 14.2981 0.385049 14.2267C0.266805 14.1554 0.174838 14.0613 0.109148 13.9445C0.0434569 13.8277 0.00732704 13.7011 0.00075797 13.5648C-0.0058111 13.4286 0.0303188 13.2955 0.109148 13.1657L7.40081 0.706254C7.47964 0.576467 7.58146 0.479127 7.70628 0.414234C7.83109 0.349341 7.95919 0.316895 8.09057 0.316895C8.22195 0.316895 8.35005 0.349341 8.47486 0.414234C8.59967 0.479127 8.70149 0.576467 8.78032 0.706254L16.072 13.1657C16.1508 13.2955 16.1869 13.4286 16.1804 13.5648C16.1738 13.7011 16.1377 13.8277 16.072 13.9445C16.0063 14.0613 15.9143 14.1554 15.7961 14.2267C15.6778 14.2981 15.5465 14.3338 15.4019 14.3338H0.779193ZM8.09057 11.9977C8.31392 11.9977 8.50113 11.923 8.65222 11.7738C8.80331 11.6245 8.87886 11.4396 8.87886 11.219C8.87886 10.9983 8.80331 10.8134 8.65222 10.6641C8.50113 10.5149 8.31392 10.4402 8.09057 10.4402C7.86722 10.4402 7.68 10.5149 7.52891 10.6641C7.37782 10.8134 7.30228 10.9983 7.30228 11.219C7.30228 11.4396 7.37782 11.6245 7.52891 11.7738C7.68 11.923 7.86722 11.9977 8.09057 11.9977ZM8.09057 9.66151C8.31392 9.66151 8.50113 9.58689 8.65222 9.43763C8.80331 9.28838 8.87886 9.10343 8.87886 8.8828V6.54664C8.87886 6.326 8.80331 6.14106 8.65222 5.9918C8.50113 5.84255 8.31392 5.76792 8.09057 5.76792C7.86722 5.76792 7.68 5.84255 7.52891 5.9918C7.37782 6.14106 7.30228 6.326 7.30228 6.54664V8.8828C7.30228 9.10343 7.37782 9.28838 7.52891 9.43763C7.68 9.58689 7.86722 9.66151 8.09057 9.66151Z" fill="#FC4869"/>
</svg>
