
<svg width="18" height="15" viewBox="0 0 18 15" fill="none" xmlns="http://www.w3.org/2000/svg">
<g clip-path="url(#clip0_140_4397)">
<path d="M15.07 11.5064C14.595 11.5064 14.1506 11.2726 13.8815 10.8812L13.1757 9.85455C12.3443 11.3453 10.7638 12.3077 8.98032 12.3077C6.49165 12.3077 4.43853 10.4068 4.19647 7.98075H4.6534C4.83192 7.98075 4.99579 7.88183 5.07889 7.72379C5.162 7.56578 5.1507 7.3747 5.04956 7.2276L4.34872 6.2082L3.28674 4.66348C3.19709 4.53304 3.04891 4.45508 2.89058 4.45508C2.87079 4.45508 2.85116 4.45628 2.83176 4.45866C2.81236 4.46104 2.79325 4.46462 2.77447 4.46927C2.72753 4.48096 2.68274 4.49961 2.64162 4.52451C2.58407 4.55934 2.53362 4.60638 2.49439 4.66344L0.731568 7.22757C0.630429 7.37467 0.619133 7.56578 0.702239 7.72376C0.785344 7.88173 0.949211 7.98075 1.12776 7.98075H1.62385C1.73824 9.76887 2.48931 11.4342 3.7677 12.7126C5.16004 14.105 7.01124 14.8718 8.98032 14.8718C10.9494 14.8718 12.8006 14.105 14.1929 12.7126C14.5631 12.3425 14.8909 11.9364 15.1723 11.5024C15.1383 11.5048 15.1043 11.5064 15.07 11.5064Z" fill="#4340EA"/>
<path d="M9.34666 7.01914H8.61408C8.47521 7.01914 8.36225 6.90618 8.36225 6.76731V6.40101C8.36225 6.26217 8.47521 6.14922 8.61408 6.14922H9.34666C9.48553 6.14922 9.59848 6.26217 9.59848 6.40101C9.59848 6.66653 9.81375 6.88177 10.0792 6.88177C10.3447 6.88177 10.56 6.6665 10.56 6.40101C10.56 5.7706 10.0767 5.25111 9.46108 5.19323V4.93584C9.46108 4.67031 9.24581 4.45508 8.98032 4.45508C8.71479 4.45508 8.49956 4.67034 8.49956 4.93584V5.19323C7.884 5.25111 7.40063 5.7706 7.40063 6.40101V6.76731C7.40063 7.43639 7.94494 7.98069 8.61401 7.98069H9.34659C9.48546 7.98069 9.59842 8.09365 9.59842 8.23251V8.59882C9.59842 8.73765 9.48543 8.85064 9.34659 8.85064H8.61401C8.47514 8.85064 8.36219 8.73769 8.36219 8.59885C8.36219 8.33333 8.14692 8.11809 7.88143 8.11809C7.61593 8.11809 7.40067 8.33336 7.40067 8.59885C7.40067 9.22926 7.884 9.74875 8.49959 9.80663V10.064C8.49959 10.3295 8.71486 10.5447 8.98035 10.5447C9.24588 10.5447 9.46111 10.3295 9.46111 10.064V9.8066C10.0766 9.74872 10.56 9.22922 10.56 8.59882V8.23251C10.56 7.56344 10.0157 7.01914 9.34666 7.01914Z" fill="#B5B4F9"/>
<path d="M17.2583 7.27639C17.1752 7.11838 17.0113 7.01942 16.8328 7.01942H16.3367C16.2223 5.23131 15.4712 3.56594 14.1929 2.28753C12.8006 0.895213 10.9493 0.128418 8.98028 0.128418C7.01124 0.128418 5.15997 0.895213 3.76766 2.28756C3.39751 2.65771 3.06974 3.06376 2.78833 3.49778C2.82222 3.49537 2.85627 3.49381 2.89054 3.49381C3.36564 3.49381 3.80994 3.72753 4.07905 4.119L4.78484 5.14563C5.61625 3.65491 7.19675 2.69254 8.98025 2.69254C11.4689 2.69254 13.522 4.59345 13.7641 7.01945H13.3072C13.1286 7.01945 12.9648 7.11838 12.8817 7.27642C12.7986 7.43443 12.8099 7.62551 12.911 7.77261L13.6118 8.79201L14.6738 10.3367C14.6963 10.3693 14.7223 10.3987 14.7513 10.4243C14.8382 10.5013 14.9513 10.5451 15.07 10.5451C15.2283 10.5451 15.3765 10.4672 15.4662 10.3367L16.1027 9.41085L17.229 7.77264C17.3302 7.62544 17.3414 7.43436 17.2583 7.27639Z" fill="#4340EA"/>
</g>
<defs>
<clipPath id="clip0_140_4397">
<rect width="16.6667" height="15" fill="white" transform="translate(0.646973)"/>
</clipPath>
</defs>
</svg>
