
<svg width="17" height="15" viewBox="0 0 17 15" fill="none" xmlns="http://www.w3.org/2000/svg">
<g clip-path="url(#clip0_140_4431)">
<path d="M8.33325 5.89258C9.89734 5.89258 11.1653 4.62463 11.1653 3.06055C11.1653 1.49646 9.89734 0.228516 8.33325 0.228516C6.76916 0.228516 5.50122 1.49646 5.50122 3.06055C5.50122 4.62463 6.76916 5.89258 8.33325 5.89258Z" fill="#B5B4F9"/>
<path d="M14.0626 5.89225C15.0514 5.89225 15.8529 5.09068 15.8529 4.10189C15.8529 3.1131 15.0514 2.31152 14.0626 2.31152C13.0738 2.31152 12.2722 3.1131 12.2722 4.10189C12.2722 5.09068 13.0738 5.89225 14.0626 5.89225Z" fill="#3D3AE4"/>
<path d="M2.60409 5.89225C3.59288 5.89225 4.39445 5.09068 4.39445 4.10189C4.39445 3.1131 3.59288 2.31152 2.60409 2.31152C1.61529 2.31152 0.813721 3.1131 0.813721 4.10189C0.813721 5.09068 1.61529 5.89225 2.60409 5.89225Z" fill="#3D3AE4"/>
<path d="M4.36816 7.50042C3.66341 6.92301 3.02516 6.99944 2.21029 6.99944C0.991536 6.99944 0 7.98512 0 9.19638V12.7514C0 13.2774 0.429362 13.7052 0.957357 13.7052C3.23685 13.7052 2.96224 13.7464 2.96224 13.6069C2.96224 11.0878 2.66387 9.24043 4.36816 7.50042Z" fill="#3D3AE4"/>
<path d="M9.10849 7.01204C7.68519 6.89333 6.44804 7.01341 5.38095 7.89421C3.59525 9.32454 3.9389 11.2504 3.9389 13.6064C3.9389 14.2298 4.44606 14.7464 5.07887 14.7464C11.95 14.7464 12.2235 14.9681 12.631 14.0658C12.7646 13.7606 12.728 13.8576 12.728 10.9385C12.728 8.61992 10.7204 7.01204 9.10849 7.01204Z" fill="#B5B4F9"/>
<path d="M14.4565 6.99936C13.6371 6.99936 13.0024 6.92371 12.2986 7.50034C13.9902 9.22742 13.7045 10.9487 13.7045 13.6068C13.7045 13.7472 13.4765 13.7051 15.6752 13.7051C16.2221 13.7051 16.6667 13.2621 16.6667 12.7175V9.1963C16.6667 7.98504 15.6752 6.99936 14.4565 6.99936Z" fill="#3D3AE4"/>
</g>
<defs>
<clipPath id="clip0_140_4431">
<rect width="16.6667" height="15" fill="white"/>
</clipPath>
</defs>
</svg>
